<?xml version="1.0" encoding="UTF-8"?>
<svg xmlns="http://www.w3.org/2000/svg" xmlns:xlink="http://www.w3.org/1999/xlink" width="508px" height="512px" viewBox="0 0 508 511" version="1.1">
<g id="surface1">
<rect x="0" y="0" width="508" height="511" style="fill:rgb(100%,100%,100%);fill-opacity:1;stroke:none;"/>
<path style=" stroke:none;fill-rule:nonzero;fill:rgb(6.666667%,6.666667%,6.666667%);fill-opacity:1;" d="M 255.507812 421.960938 C 163.414062 421.960938 88.761719 347.4375 88.761719 255.5 C 88.761719 163.5625 163.414062 89.039062 255.507812 89.039062 C 319.605469 89.039062 375.25 125.132812 403.160156 178.078125 L 499.910156 178.078125 C 467.066406 74.816406 370.257812 0 255.9375 0 C 114.585938 0 0 114.390625 0 255.5 C 0 396.609375 114.585938 511 255.9375 511 C 367.378906 511 462.179688 439.898438 497.316406 340.667969 L 398.808594 340.667969 C 369.714844 389.351562 316.425781 421.960938 255.507812 421.960938 Z M 197.769531 224.53125 L 197.769531 294.210938 Z M 197.769531 224.53125 "/>
<path style=" stroke:none;fill-rule:nonzero;fill:rgb(6.666667%,6.666667%,6.666667%);fill-opacity:1;" d="M 508 224.53125 L 197.769531 224.53125 L 197.769531 294.210938 L 508 294.210938 Z M 508 224.53125 "/>
</g>
</svg>
